<?xml version="1.0" encoding="utf-8"?>
<!-- Generator: Adobe Illustrator 24.1.1, SVG Export Plug-In . SVG Version: 6.00 Build 0)  -->
<svg version="1.1" id="Layer_1" xmlns="http://www.w3.org/2000/svg" xmlns:xlink="http://www.w3.org/1999/xlink" x="0px" y="0px"
	 viewBox="0 0 181.58 382.15" style="enable-background:new 0 0 181.58 382.15;" xml:space="preserve">
<g>
	<g>
		<path d="M79.25,355.73c-1.62,1.17-3.32,2.17-5.14,3c0.85-0.39-0.43,0.16-0.69,0.26c-0.42,0.15-0.85,0.3-1.28,0.43
			c-1,0.31-2.02,0.57-3.05,0.78c-0.44,0.09-0.89,0.16-1.33,0.24c-0.59,0.1,0.13-0.02,0.21-0.02c-0.22,0.03-0.45,0.05-0.67,0.07
			c-1.06,0.09-2.11,0.16-3.17,0.16c-0.99,0-1.98-0.03-2.97-0.11c-0.46-0.04-0.92-0.09-1.37-0.13c0.94,0.1-0.43-0.07-0.73-0.12
			c-2.07-0.36-4.11-0.88-6.1-1.55c-0.89-0.3-1.78-0.63-2.64-0.99c0.8,0.33-0.54-0.26-0.75-0.35c-0.5-0.24-0.99-0.48-1.48-0.73
			c-1.89-0.98-3.71-2.1-5.43-3.35c-0.19-0.14-0.38-0.28-0.57-0.42c0.08,0.06,0.52,0.42,0.08,0.06c-0.37-0.29-0.73-0.59-1.09-0.9
			c-0.84-0.71-1.64-1.46-2.42-2.23c-6.2-6.22-9.87-14.42-11.91-23.1c-1.15-4.9-1.59-8.57-1.81-13.7c-0.2-4.9-0.03-9.8,0.45-14.68
			c0.43-4.41,1.1-8.64,2.1-13.44c0.99-4.76,2.22-9.48,3.66-14.12c2.94-9.47,6.33-17.57,10.81-26.31
			c8.94-17.46,20.21-33.13,32.93-47.64c6.53-7.46,13.43-14.59,20.58-21.45c7.68-7.36,15.65-14.42,23.28-21.84
			c15.34-14.91,29.37-31.76,35.88-52.48c3.19-10.14,4.23-20.8,2.64-31.32c-1.64-10.9-6.72-21.04-12.38-30.37
			c-5.07-8.36-11.04-16.45-19.19-22.03c-8.16-5.59-18.23-7.32-27.81-4.88c-9.31,2.38-17.41,8.3-23.02,16.01
			c-6.07,8.35-8.64,19.09-8.62,29.29c0.01,5.17,0.7,10.39,1.91,15.42c1.12,4.63,2.72,9.45,5.55,13.34c2.85,3.91,7.13,7.89,12.3,7.81
			c4.13-0.06,7.77-2.51,10.8-5.09c1.48-1.27,2.88-2.68,4.1-4.21c1.68-2.11,2.06-5.01,0-7.07c-1.74-1.74-5.38-2.12-7.07,0
			c-1.18,1.48-2.54,2.85-3.96,4.09c-0.32,0.28-0.65,0.55-0.99,0.82c0.68-0.54,0.19-0.16-0.2,0.11c-0.67,0.45-1.39,0.79-2.08,1.2
			c-0.47,0.28,0.33-0.15,0.37-0.16c-0.17,0.04-0.33,0.13-0.49,0.17c-0.59,0.15-1.26,0.01-0.15,0.12c-0.15-0.02-0.88,0.13-0.97,0
			c0.09,0.13,1-0.05,0.54,0.04c-0.12,0.02-0.77-0.31-0.25-0.07c0.48,0.22-0.67-0.41-0.86-0.54c-0.21-0.13-0.41-0.27-0.62-0.41
			c0.09,0.06,0.48,0.4,0.05,0.03c-0.37-0.32-0.73-0.66-1.07-1.01c-0.17-0.18-0.33-0.36-0.5-0.54c-1.03-1.08,0.2,0.34-0.3-0.35
			c-0.6-0.81-1.13-1.68-1.61-2.57c-0.24-0.45-0.47-0.91-0.69-1.37c-0.11-0.23-0.22-0.47-0.32-0.7c0.21,0.49-0.01-0.03-0.08-0.23
			c-0.8-2.17-1.45-4.38-1.98-6.63c-0.56-2.42-0.92-4.48-1.12-6.53c-0.25-2.45-0.34-4.92-0.27-7.38c0.06-2.33,0.27-4.48,0.58-6.25
			c0.42-2.39,1.02-4.76,1.81-7.06c0.77-2.22,1.44-3.71,2.72-5.95c2.1-3.67,4.32-6.23,7.9-9.15c0.65-0.53-0.1,0.04,0.59-0.44
			c0.41-0.29,0.82-0.58,1.24-0.86c0.97-0.65,1.98-1.24,3.01-1.79c0.44-0.23,0.89-0.46,1.34-0.68c0.18-0.09,1.29-0.59,0.63-0.31
			c1.06-0.45,2.16-0.83,3.27-1.15c0.95-0.28,1.9-0.52,2.87-0.71c0.48-0.1,0.97-0.18,1.45-0.25c-0.84,0.12,0.6-0.05,0.86-0.07
			c1.06-0.08,2.12-0.1,3.18-0.06c0.49,0.02,0.98,0.06,1.47,0.09c0.03,0,0.84,0.08,0.31,0.02c-0.49-0.06,0.46,0.07,0.55,0.09
			c0.98,0.17,1.95,0.4,2.91,0.67c0.59,0.17,1.17,0.36,1.75,0.57c0.25,0.09,0.49,0.18,0.73,0.28c0.8,0.31-0.54-0.25,0.24,0.1
			c1.97,0.9,3.83,2,5.59,3.26c0.52,0.38,0.74,0.55,0.85,0.64c0.41,0.33,0.81,0.67,1.2,1.01c0.86,0.75,1.69,1.54,2.49,2.35
			c1.63,1.65,3.16,3.4,4.57,5.23c-0.31-0.4,0.42,0.57,0.52,0.7c0.32,0.43,0.64,0.87,0.95,1.31c0.73,1.03,1.43,2.07,2.12,3.12
			c1.28,1.96,2.5,3.97,3.68,5.99c2.58,4.41,5.06,9.09,6.79,13.69c0.9,2.39,1.67,4.83,2.27,7.31c0.59,2.46,0.95,4.61,1.13,6.7
			c0.86,9.92-0.85,18.93-4.4,28.32c-3.25,8.59-8.7,17.6-14.52,24.93c-6.49,8.17-13.88,15.58-21.45,22.75
			c-14.52,13.73-29.26,27.05-42.26,42.28c-12.55,14.7-23.84,30.62-32.54,47.92c-8.77,17.45-14.81,36.07-17.07,55.5
			c-2.19,18.84-0.18,39.92,11.55,55.54c10.38,13.83,28.91,22.2,46.12,17.81c3.93-1,7.73-2.75,11.01-5.13
			c2.18-1.58,3.25-4.35,1.79-6.84C84.83,355.37,81.45,354.14,79.25,355.73L79.25,355.73z"/>
	</g>
</g>
</svg>
