<?xml version="1.0" encoding="utf-8"?>
<!-- Generator: Adobe Illustrator 24.1.0, SVG Export Plug-In . SVG Version: 6.00 Build 0)  -->
<svg version="1.1" id="Layer_1" xmlns="http://www.w3.org/2000/svg" xmlns:xlink="http://www.w3.org/1999/xlink" x="0px" y="0px"
	 viewBox="0 0 181.6 382.1" style="enable-background:new 0 0 181.6 382.1;" xml:space="preserve">
<g>
	<g>
		<path d="M87.3,260.3c5.7,4.1,13.7,2.8,19.1-1.3c6.3-4.8,8.6-12.9,8.7-20.5c0.1-7.6-1.8-15.3-4.7-22.3c-3-7.2-7.1-13.9-11.8-20.1
			c-4.8-6.2-10.3-11.9-16.1-17.2c-6-5.6-12.3-11.1-16.4-18.2c-2-3.4-3.4-6.9-4-10.8c-0.1-0.5-0.1-0.6-0.2-1.2c0-0.5-0.1-1-0.1-1.5
			c0-1,0-2,0.1-3c0.1-0.8,0.2-1.7,0.5-2.7c0.2-1,0.6-2,0.9-2.9c0.7-1.8,1.7-3.7,2.7-5.5c0.5-0.8,1-1.7,1.5-2.5
			c0.2-0.4,0.5-0.7,0.7-1.1c0.1-0.2,0.3-0.4,0.4-0.5c0.1-0.1,0.1-0.2,0.2-0.3c0.2-0.3-0.1,0.2,0.1-0.1c0.6-0.7,1.2-1.4,1.8-2.1
			c0.3-0.3,0.6-0.6,0.9-0.9c0.4-0.4,0.5-0.4,0.9-0.7c0.7-0.5,1.5-0.9,2.2-1.3c-0.2,0.1,0.3-0.1,0.4-0.1c0.2-0.1,0.4-0.1,0.6-0.2
			c0.4-0.1,0.8-0.2,1.3-0.3c0.4-0.1-0.1,0,0.2,0c0.2,0,0.4,0,0.6,0c0.5,0,0.9,0,1.4,0c0.1,0,0.6,0.1,0.2,0c0.2,0,0.4,0.1,0.6,0.1
			c0.5,0.1,0.9,0.2,1.3,0.3c0.4,0.1,0.8,0.3,1.1,0.4c-0.3-0.1,0.2,0.1,0.3,0.1c0.2,0.1,0.4,0.2,0.6,0.3c0.4,0.2,0.8,0.4,1.1,0.7
			c0.2,0.1,0.3,0.2,0.5,0.3c0,0,0.3,0.2,0.1,0.1c-0.1-0.1,0.2,0.1,0.2,0.2c1.4,1.2,2.3,2.2,3.1,3.7c0.5,0.9,0.8,1.5,1.1,2.4
			c0.3,0.9,0.5,1.9,0.7,2.8c0.1,0.4,0.1,0.5,0.1,1c0,0.5,0.1,1.1,0.1,1.6c0,0.9,0,1.9-0.1,2.8c-0.1,0.8-0.2,1.7-0.5,2.6
			c-0.2,0.9-0.5,1.8-0.8,2.6c-0.1,0.2,0,0,0,0c0,0.1-0.1,0.2-0.1,0.3c-0.1,0.2-0.2,0.4-0.3,0.5c-0.2,0.4-0.4,0.8-0.7,1.1
			c0.2-0.2-0.2,0.2-0.3,0.3c-0.1,0.1-0.3,0.3-0.4,0.4c-0.2,0.1,0,0,0,0c-0.1,0.1-0.2,0.1-0.2,0.2s-0.2,0.1-0.3,0.2
			c-0.2,0.1-0.1,0.1,0,0c0,0-0.2,0.1-0.2,0.1c-0.2,0,0.2,0,0.2,0c-0.1,0-0.6,0-0.3,0c0.3,0-0.1,0-0.2-0.1c-0.4-0.1,0.2,0.1-0.1,0
			c-0.3-0.1-0.5-0.3-0.8-0.4c-0.2-0.1-0.3-0.3-0.1,0c-0.2-0.1-0.3-0.2-0.5-0.4c-0.6-0.5-1.1-1-1.5-1.6c-0.7-0.8-2.1-0.7-2.8,0
			c-0.8,0.8-0.7,2,0,2.8c1.4,1.8,3.6,3.7,6,3.7c2.1,0,3.8-1.6,4.9-3.2c1.1-1.6,1.7-3.5,2.2-5.4c1.9-8,0.1-17.1-7-22
			c-3.2-2.2-7.1-3.1-10.8-2.4c-3.9,0.7-7.2,3.3-9.6,6.3c-2.6,3.2-4.8,6.8-6.4,10.6c-1.7,4-2.5,8.3-2.1,12.6
			c0.9,8.7,5.5,16.3,11.2,22.6c5.6,6.2,12.2,11.5,18,17.5c5.5,5.7,10.3,11.6,14.4,18.4c4,6.7,7,13.5,8.6,21.2
			c0.2,0.9,0.4,1.9,0.5,2.8c0.1,0.5,0.1,0.9,0.2,1.1c0.1,0.5,0.1,1,0.2,1.4c0.2,2,0.3,3.9,0.2,5.9c-0.2,3.6-0.9,7.4-2.6,10.6
			c-0.9,1.6-1.7,2.9-2.9,4.1c-0.3,0.3-0.6,0.6-0.9,0.8c-0.1,0.1-0.3,0.2-0.4,0.4c-0.2,0.1,0,0,0,0c-0.1,0.1-0.3,0.2-0.4,0.3
			c-0.7,0.5-1.4,0.9-2.1,1.3c-0.2,0.1-0.3,0.2-0.5,0.3c-0.1,0-0.6,0.3-0.3,0.1c-0.4,0.2-0.8,0.3-1.1,0.4c-0.8,0.3-1.6,0.5-2.4,0.6
			c-0.1,0-0.5,0.1-0.2,0c-0.2,0-0.4,0-0.5,0.1c-0.4,0-0.9,0-1.3,0c-0.4,0-0.8,0-1.2-0.1c-0.1,0-0.2,0-0.3,0c0,0,0.3,0,0.1,0
			c-0.2,0-0.4-0.1-0.6-0.1c-0.4-0.1-0.8-0.2-1.1-0.3c-0.2-0.1-0.3-0.1-0.5-0.2c-0.1,0-0.6-0.3-0.3-0.1c-0.7-0.3-1.4-0.7-2.1-1.2
			c-0.9-0.6-2.2-0.2-2.7,0.7C86,258.6,86.4,259.7,87.3,260.3L87.3,260.3z"/>
	</g>
</g>
</svg>
