<?xml version="1.0" encoding="utf-8"?>
<!-- Generator: Adobe Illustrator 24.1.0, SVG Export Plug-In . SVG Version: 6.00 Build 0)  -->
<svg version="1.1" id="Layer_1" xmlns="http://www.w3.org/2000/svg" xmlns:xlink="http://www.w3.org/1999/xlink" x="0px" y="0px"
	 viewBox="0 0 181.6 382.1" style="enable-background:new 0 0 181.6 382.1;" xml:space="preserve">
<g>
	<g>
		<path d="M83.6,256.9c-0.6,0.5-1.3,0.9-2.1,1.2c0.3-0.2-0.2,0.1-0.3,0.1c-0.2,0.1-0.3,0.1-0.5,0.2c-0.4,0.1-0.8,0.2-1.2,0.3
			c-0.2,0-0.4,0.1-0.5,0.1c-0.2,0,0.1,0,0.1,0c-0.1,0-0.2,0-0.3,0c-0.4,0-0.8,0.1-1.3,0.1c-0.4,0-0.8,0-1.2,0c-0.2,0-0.4,0-0.5-0.1
			c0.4,0-0.2,0-0.3,0c-0.8-0.1-1.6-0.4-2.4-0.6c-0.4-0.1-0.7-0.3-1.1-0.4c0.3,0.1-0.2-0.1-0.3-0.1c-0.2-0.1-0.4-0.2-0.6-0.3
			c-0.8-0.4-1.5-0.8-2.2-1.3c-0.1-0.1-0.2-0.1-0.2-0.2c0,0,0.2,0.2,0,0c-0.1-0.1-0.3-0.2-0.4-0.4c-0.3-0.3-0.7-0.6-1-0.9
			c-2.5-2.5-3.9-5.8-4.8-9.2c-0.5-2-0.6-3.4-0.7-5.5c-0.1-2,0-3.9,0.2-5.9c0.2-1.8,0.4-3.5,0.8-5.4c0.4-1.9,0.9-3.8,1.5-5.6
			c1.2-3.8,2.5-7,4.3-10.5c3.6-7,8.1-13.3,13.2-19.1c2.6-3,5.4-5.8,8.2-8.6c3.1-2.9,6.3-5.8,9.3-8.7c6.1-6,11.7-12.7,14.4-21
			c1.3-4.1,1.7-8.3,1.1-12.5c-0.7-4.4-2.7-8.4-5-12.1c-2-3.3-4.4-6.6-7.7-8.8c-3.3-2.2-7.3-2.9-11.1-2c-3.7,1-7,3.3-9.2,6.4
			c-2.4,3.3-3.5,7.6-3.4,11.7c0,2.1,0.3,4.2,0.8,6.2c0.4,1.9,1.1,3.8,2.2,5.3c1.1,1.6,2.9,3.2,4.9,3.1c1.7,0,3.1-1,4.3-2
			c0.6-0.5,1.2-1.1,1.6-1.7c0.7-0.8,0.8-2,0-2.8c-0.7-0.7-2.2-0.8-2.8,0c-0.5,0.6-1,1.1-1.6,1.6c-0.1,0.1-0.3,0.2-0.4,0.3
			c0.3-0.2,0.1-0.1-0.1,0c-0.3,0.2-0.6,0.3-0.8,0.5c-0.2,0.1,0.1-0.1,0.1-0.1c-0.1,0-0.1,0.1-0.2,0.1c-0.2,0.1-0.5,0-0.1,0
			c-0.1,0-0.4,0.1-0.4,0c0,0.1,0.4,0,0.2,0c0,0-0.3-0.1-0.1,0c0.2,0.1-0.3-0.2-0.3-0.2c-0.1-0.1-0.2-0.1-0.2-0.2c0,0,0.2,0.2,0,0
			c-0.1-0.1-0.3-0.3-0.4-0.4c-0.1-0.1-0.1-0.1-0.2-0.2c-0.4-0.4,0.1,0.1-0.1-0.1c-0.2-0.3-0.5-0.7-0.6-1c-0.1-0.2-0.2-0.4-0.3-0.5
			c0-0.1-0.1-0.2-0.1-0.3c0.1,0.2,0,0,0-0.1c-0.3-0.9-0.6-1.8-0.8-2.7c-0.2-1-0.4-1.8-0.4-2.6c-0.1-1-0.1-2-0.1-3
			c0-0.9,0.1-1.8,0.2-2.5c0.2-1,0.4-1.9,0.7-2.8c0.3-0.9,0.6-1.5,1.1-2.4c0.8-1.5,1.7-2.5,3.2-3.7c0.3-0.2,0,0,0.2-0.2
			c0.2-0.1,0.3-0.2,0.5-0.3c0.4-0.3,0.8-0.5,1.2-0.7c0.2-0.1,0.4-0.2,0.5-0.3c0.1,0,0.5-0.2,0.3-0.1c0.4-0.2,0.9-0.3,1.3-0.5
			c0.4-0.1,0.8-0.2,1.1-0.3c0.2,0,0.4-0.1,0.6-0.1c-0.3,0,0.2,0,0.3,0c0.4,0,0.8,0,1.3,0c0.2,0,0.4,0,0.6,0c0,0,0.3,0,0.1,0
			c-0.2,0,0.2,0,0.2,0c0.4,0.1,0.8,0.2,1.2,0.3c0.2,0.1,0.5,0.1,0.7,0.2c0.1,0,0.2,0.1,0.3,0.1c0.3,0.1-0.2-0.1,0.1,0
			c0.8,0.4,1.5,0.8,2.2,1.3c0.2,0.2,0.3,0.2,0.3,0.3c0.2,0.1,0.3,0.3,0.5,0.4c0.3,0.3,0.7,0.6,1,0.9c0.7,0.7,1.3,1.4,1.8,2.1
			c-0.1-0.2,0.2,0.2,0.2,0.3c0.1,0.2,0.3,0.3,0.4,0.5c0.3,0.4,0.6,0.8,0.8,1.2c0.5,0.8,1,1.6,1.5,2.4c1,1.8,2,3.6,2.7,5.5
			c0.4,1,0.7,1.9,0.9,2.9c0.2,1,0.4,1.8,0.5,2.7c0.3,4-0.3,7.6-1.8,11.3c-1.3,3.4-3.5,7-5.8,10c-2.6,3.3-5.6,6.2-8.6,9.1
			c-5.8,5.5-11.7,10.8-16.9,16.9c-5,5.9-9.5,12.2-13,19.2c-3.5,7-5.9,14.4-6.8,22.2c-0.9,7.5-0.1,16,4.6,22.2
			c4.2,5.5,11.6,8.9,18.4,7.1c1.6-0.4,3.1-1.1,4.4-2.1c0.9-0.6,1.3-1.7,0.7-2.7C85.8,256.8,84.4,256.3,83.6,256.9L83.6,256.9z"/>
	</g>
</g>
</svg>
