<?xml version="1.0" encoding="utf-8"?>
<!-- Generator: Adobe Illustrator 24.1.1, SVG Export Plug-In . SVG Version: 6.00 Build 0)  -->
<svg version="1.1" id="Layer_1" xmlns="http://www.w3.org/2000/svg" xmlns:xlink="http://www.w3.org/1999/xlink" x="0px" y="0px"
	 viewBox="0 0 181.58 382.15" style="enable-background:new 0 0 181.58 382.15;" xml:space="preserve">
<g>
	<g>
		<path d="M88.59,364.36c14.16,10.27,34.36,6.97,47.65-3.14c15.77-11.99,21.62-32.17,21.8-51.28c0.18-19.05-4.47-38.28-11.7-55.82
			c-7.46-18.08-17.64-34.75-29.58-50.21c-12.06-15.61-25.74-29.7-40.18-43.1c-15.01-13.91-30.75-27.78-41.06-45.53
			c-4.92-8.46-8.41-17.22-10.01-27.05c-0.22-1.33-0.24-1.52-0.38-2.94c-0.12-1.23-0.2-2.47-0.25-3.71c-0.09-2.48-0.03-4.96,0.2-7.43
			c0.18-1.97,0.58-4.32,1.17-6.71c0.61-2.48,1.39-4.91,2.3-7.3c1.74-4.57,4.26-9.28,6.84-13.67c1.22-2.09,2.49-4.16,3.82-6.18
			c0.59-0.9,1.2-1.79,1.82-2.67c0.31-0.44,0.63-0.88,0.95-1.31c0.16-0.22,0.32-0.43,0.48-0.65c0.53-0.71-0.34,0.43,0.2-0.27
			c1.43-1.82,2.96-3.57,4.59-5.21c0.75-0.75,1.51-1.47,2.31-2.17c1.12-0.98,1.2-1.05,2.27-1.81c1.76-1.24,3.64-2.35,5.62-3.21
			c-0.56,0.25,0.79-0.29,0.99-0.36c0.5-0.17,1-0.34,1.5-0.48c1.04-0.3,2.09-0.53,3.16-0.72c0.93-0.16-0.31-0.01,0.62-0.07
			c0.49-0.03,0.98-0.07,1.47-0.09c1.14-0.04,2.29-0.01,3.43,0.08c0.25,0.02,1.43,0.17,0.62,0.05c0.49,0.07,0.97,0.16,1.45,0.25
			c1.13,0.22,2.25,0.51,3.34,0.85c0.95,0.3,1.89,0.63,2.8,1.01c-0.67-0.28,0.44,0.22,0.63,0.31c0.53,0.25,1.04,0.52,1.56,0.79
			c0.95,0.52,1.89,1.07,2.79,1.67c0.42,0.28,0.83,0.57,1.24,0.86c0,0,0.66,0.48,0.3,0.21c-0.3-0.23,0.41,0.33,0.48,0.39
			c3.59,2.94,5.73,5.49,7.84,9.24c1.27,2.25,1.9,3.66,2.67,5.97c0.78,2.3,1.36,4.67,1.77,7.07c0.19,1.12,0.21,1.25,0.33,2.59
			c0.12,1.32,0.19,2.64,0.21,3.96c0.04,2.37-0.07,4.74-0.32,7.1c-0.2,1.93-0.6,4.15-1.16,6.52c-0.53,2.24-1.17,4.45-2.01,6.59
			c-0.21,0.54-0.03,0.1,0.01-0.01c-0.1,0.24-0.21,0.47-0.32,0.7c-0.22,0.46-0.45,0.92-0.69,1.37c-0.52,0.96-1.08,1.91-1.75,2.77
			c0.42-0.54-0.5,0.52-0.66,0.69c-0.34,0.35-0.7,0.69-1.07,1.01c-0.43,0.37-0.04,0.04,0.05-0.03c-0.2,0.14-0.41,0.28-0.62,0.41
			c-0.21,0.13-0.43,0.25-0.64,0.38c-0.55,0.34-0.25,0.36,0,0.08c-0.04,0.04-0.41,0.16-0.47,0.14c-0.43-0.08,0.42,0.05,0.54-0.04
			c-0.16,0.12-1.53-0.1-0.63,0.04c0.8,0.12-0.29-0.12-0.49-0.17c-1.06-0.26,0.42,0.3-0.28-0.09c-0.65-0.36-1.3-0.71-1.92-1.12
			c-0.39-0.26-0.87-0.64-0.2-0.11c-0.38-0.3-0.76-0.62-1.13-0.94c-1.38-1.21-2.69-2.54-3.83-3.97c-1.68-2.11-5.31-1.76-7.07,0
			c-2.09,2.09-1.69,4.95,0,7.07c3.54,4.44,9.09,9.3,15.06,9.3c5.17,0,9.48-4.07,12.28-8.01c2.79-3.93,4.37-8.76,5.47-13.41
			c4.73-20,0.26-42.77-17.55-54.91c-7.89-5.38-17.64-7.74-27.07-6.11c-9.67,1.67-17.88,8.21-23.92,15.65
			c-6.48,7.96-11.92,17.09-15.94,26.53c-4.26,10.02-6.27,20.69-5.17,31.57c2.19,21.69,13.69,40.65,28.02,56.56
			c14.02,15.58,30.46,28.75,44.96,43.87c13.73,14.3,25.7,29.1,35.92,46.04c10.08,16.7,17.46,33.87,21.42,53.08
			c0.48,2.35,0.91,4.71,1.28,7.08c0.18,1.16,0.32,2.18,0.4,2.8c0.14,1.19,0.28,2.38,0.4,3.57c0.47,4.88,0.64,9.79,0.42,14.68
			c-0.4,9-2.33,18.51-6.51,26.46c-2.14,4.06-4.26,7.16-7.36,10.23c-0.72,0.72-1.48,1.41-2.25,2.07c-0.36,0.31-0.72,0.61-1.09,0.9
			c-0.45,0.36,0,0,0.08-0.06c-0.32,0.24-0.63,0.47-0.96,0.7c-1.67,1.18-3.43,2.25-5.26,3.18c-0.42,0.22-0.84,0.42-1.27,0.63
			c-0.22,0.1-1.57,0.7-0.75,0.35c-0.94,0.39-1.9,0.74-2.87,1.06c-1.99,0.66-4.03,1.17-6.11,1.51c-0.31,0.05-1.37,0.17-0.5,0.08
			c-0.46,0.05-0.91,0.1-1.37,0.13c-1.06,0.08-2.13,0.12-3.2,0.11c-0.99-0.01-1.97-0.07-2.95-0.16c-0.23-0.02-0.45-0.05-0.67-0.07
			c0.08,0.01,0.8,0.12,0.21,0.02c-0.52-0.09-1.04-0.17-1.55-0.28c-0.96-0.2-1.9-0.44-2.83-0.73c-0.43-0.13-0.86-0.28-1.28-0.43
			c-0.26-0.09-1.5-0.63-0.69-0.26c-1.81-0.83-3.52-1.83-5.14-3c-2.19-1.59-5.57-0.38-6.84,1.79
			C85.32,360.05,86.4,362.77,88.59,364.36L88.59,364.36z"/>
	</g>
</g>
</svg>
